<svg width="616" height="295" viewBox="0 0 616 295" fill="none" xmlns="http://www.w3.org/2000/svg">
<path d="M539.016 238.514C522.219 240.997 505.684 245.025 489.409 250.599C473.135 256.173 456.113 253.409 438.346 242.308C420.578 231.206 411.611 214.975 411.445 193.616C411.279 172.256 415.366 150.597 423.708 128.64C432.049 106.683 447.964 98.588 471.452 104.356C494.94 110.124 519.155 112.352 544.096 111.041C569.037 109.73 578.911 121.537 573.72 146.46C568.529 171.384 565.646 192.336 565.072 209.317C564.498 226.298 555.813 236.03 539.016 238.514Z" fill="url(#paint0_linear_3_2)"/>
<path d="M156.534 123.624C144.032 139.176 131.617 155.801 119.289 173.499C106.961 191.196 88.2952 200.671 63.2916 201.922C38.288 203.174 28.0435 189.319 32.558 160.36C37.0726 131.4 30.5612 108.071 13.024 90.3739C-4.51326 72.6763 -4.33963 57.0345 13.5449 43.4485C31.4294 29.8624 50.703 17.8853 71.3657 7.517C92.0284 -2.85128 113.646 -2.49375 136.219 8.58958C158.791 19.6729 170.946 37.728 172.682 62.7549C174.419 87.7818 169.036 108.071 156.534 123.624Z" fill="url(#paint1_linear_3_2)"/>
<path d="M71.624 151C69.832 151 68.456 150.232 67.496 148.696C66.536 147.16 66.44 145.528 67.208 143.8L94.184 79.384C95.144 77.144 96.712 76.024 98.888 76.024C101.192 76.024 102.76 77.144 103.592 79.384L130.664 143.992C131.368 145.784 131.24 147.416 130.28 148.888C129.384 150.296 128.008 151 126.152 151C125.192 151 124.264 150.744 123.368 150.232C122.536 149.656 121.928 148.888 121.544 147.928L97.736 88.792H100.424L76.232 147.928C75.784 148.952 75.112 149.72 74.216 150.232C73.384 150.744 72.52 151 71.624 151ZM76.712 134.488L80.552 126.232H118.184L122.024 134.488H76.712ZM156.589 151C155.181 151 153.997 150.52 153.036 149.56C152.077 148.6 151.597 147.416 151.597 146.008V76.024H161.581V146.008C161.581 147.416 161.101 148.6 160.141 149.56C159.181 150.52 157.997 151 156.589 151ZM130.861 85.24C129.517 85.24 128.397 84.824 127.501 83.992C126.669 83.096 126.253 81.976 126.253 80.632C126.253 79.288 126.669 78.2 127.501 77.368C128.397 76.472 129.517 76.024 130.861 76.024H182.221C183.565 76.024 184.653 76.472 185.485 77.368C186.381 78.2 186.829 79.288 186.829 80.632C186.829 81.976 186.381 83.096 185.485 83.992C184.653 84.824 183.565 85.24 182.221 85.24H130.861ZM195.736 174.04C195.096 174.04 194.328 173.848 193.432 173.464C190.616 172.184 189.848 170.168 191.128 167.416L220.408 101.272C221.688 98.584 223.704 97.816 226.456 98.968C229.336 100.184 230.136 102.2 228.856 105.016L199.48 171.064C198.712 173.048 197.464 174.04 195.736 174.04ZM207.064 148.888C205.848 149.4 204.696 149.464 203.608 149.08C202.584 148.632 201.752 147.8 201.112 146.584L179.128 104.824C178.488 103.608 178.392 102.456 178.84 101.368C179.352 100.216 180.216 99.384 181.432 98.872C182.648 98.36 183.8 98.328 184.888 98.776C185.976 99.16 186.808 99.96 187.384 101.176L208.408 142.936C209.048 144.152 209.272 145.336 209.08 146.488C208.952 147.576 208.28 148.376 207.064 148.888ZM242.974 173.464C241.566 173.464 240.382 172.984 239.422 172.024C238.526 171.128 238.078 169.976 238.078 168.568V124.792C238.142 119.736 239.326 115.192 241.63 111.16C243.934 107.128 247.07 103.96 251.038 101.656C255.006 99.288 259.486 98.104 264.478 98.104C269.534 98.104 274.046 99.288 278.014 101.656C281.982 103.96 285.118 107.128 287.422 111.16C289.79 115.192 290.974 119.736 290.974 124.792C290.974 129.848 289.886 134.392 287.71 138.424C285.598 142.392 282.686 145.56 278.974 147.928C275.262 150.232 271.07 151.384 266.398 151.384C262.622 151.384 259.134 150.616 255.934 149.08C252.798 147.48 250.11 145.336 247.87 142.648V168.568C247.87 169.976 247.422 171.128 246.526 172.024C245.63 172.984 244.446 173.464 242.974 173.464ZM264.478 142.744C267.742 142.744 270.654 141.976 273.214 140.44C275.774 138.84 277.79 136.696 279.262 134.008C280.798 131.256 281.566 128.184 281.566 124.792C281.566 121.336 280.798 118.264 279.262 115.576C277.79 112.824 275.774 110.68 273.214 109.144C270.654 107.544 267.742 106.744 264.478 106.744C261.278 106.744 258.366 107.544 255.742 109.144C253.182 110.68 251.166 112.824 249.694 115.576C248.222 118.264 247.486 121.336 247.486 124.792C247.486 128.184 248.222 131.256 249.694 134.008C251.166 136.696 253.182 138.84 255.742 140.44C258.366 141.976 261.278 142.744 264.478 142.744ZM311.434 151C310.026 151 308.842 150.552 307.882 149.656C306.986 148.696 306.538 147.512 306.538 146.104V103.384C306.538 101.912 306.986 100.728 307.882 99.832C308.842 98.936 310.026 98.488 311.434 98.488C312.906 98.488 314.09 98.936 314.986 99.832C315.882 100.728 316.33 101.912 316.33 103.384V146.104C316.33 147.512 315.882 148.696 314.986 149.656C314.09 150.552 312.906 151 311.434 151ZM311.434 89.944C309.706 89.944 308.202 89.336 306.922 88.12C305.706 86.84 305.098 85.336 305.098 83.608C305.098 81.88 305.706 80.408 306.922 79.192C308.202 77.912 309.706 77.272 311.434 77.272C313.162 77.272 314.634 77.912 315.85 79.192C317.13 80.408 317.77 81.88 317.77 83.608C317.77 85.336 317.13 86.84 315.85 88.12C314.634 89.336 313.162 89.944 311.434 89.944ZM358.354 151.384C353.234 151.384 348.658 150.232 344.626 147.928C340.658 145.56 337.522 142.392 335.218 138.424C332.978 134.392 331.858 129.848 331.858 124.792C331.858 119.608 332.978 115 335.218 110.968C337.458 106.936 340.53 103.8 344.434 101.56C348.338 99.256 352.818 98.104 357.874 98.104C361.65 98.104 365.106 98.84 368.242 100.312C371.378 101.72 374.194 103.864 376.69 106.744C377.586 107.768 377.906 108.824 377.65 109.912C377.394 111 376.69 111.96 375.538 112.792C374.642 113.432 373.65 113.656 372.562 113.464C371.474 113.208 370.482 112.632 369.586 111.736C366.45 108.408 362.546 106.744 357.874 106.744C354.61 106.744 351.73 107.512 349.234 109.048C346.738 110.52 344.786 112.6 343.378 115.288C341.97 117.976 341.266 121.144 341.266 124.792C341.266 128.248 341.97 131.32 343.378 134.008C344.85 136.696 346.866 138.84 349.426 140.44C351.986 141.976 354.962 142.744 358.354 142.744C360.594 142.744 362.546 142.488 364.21 141.976C365.938 141.4 367.506 140.536 368.914 139.384C369.938 138.552 370.994 138.104 372.082 138.04C373.17 137.912 374.13 138.2 374.962 138.904C376.05 139.8 376.658 140.824 376.786 141.976C376.914 143.064 376.53 144.056 375.634 144.952C371.026 149.24 365.266 151.384 358.354 151.384ZM414.091 151.384C409.419 151.384 405.227 150.232 401.515 147.928C397.803 145.56 394.859 142.392 392.683 138.424C390.571 134.392 389.515 129.848 389.515 124.792C389.515 119.736 390.667 115.192 392.971 111.16C395.339 107.128 398.507 103.96 402.475 101.656C406.507 99.288 411.019 98.104 416.011 98.104C421.003 98.104 425.483 99.288 429.451 101.656C433.419 103.96 436.555 107.128 438.859 111.16C441.227 115.192 442.411 119.736 442.411 124.792H438.667C438.667 129.848 437.579 134.392 435.403 138.424C433.291 142.392 430.379 145.56 426.667 147.928C422.955 150.232 418.763 151.384 414.091 151.384ZM416.011 142.744C419.275 142.744 422.187 141.976 424.747 140.44C427.307 138.84 429.323 136.696 430.795 134.008C432.267 131.256 433.003 128.184 433.003 124.792C433.003 121.336 432.267 118.264 430.795 115.576C429.323 112.824 427.307 110.68 424.747 109.144C422.187 107.544 419.275 106.744 416.011 106.744C412.811 106.744 409.899 107.544 407.275 109.144C404.715 110.68 402.667 112.824 401.131 115.576C399.659 118.264 398.923 121.336 398.923 124.792C398.923 128.184 399.659 131.256 401.131 134.008C402.667 136.696 404.715 138.84 407.275 140.44C409.899 141.976 412.811 142.744 416.011 142.744ZM437.515 151.096C436.107 151.096 434.923 150.648 433.963 149.752C433.067 148.792 432.619 147.608 432.619 146.2V131.512L434.443 121.336L442.411 124.792V146.2C442.411 147.608 441.931 148.792 440.971 149.752C440.075 150.648 438.923 151.096 437.515 151.096ZM469.464 151C466.648 151 464.152 150.232 461.976 148.696C459.8 147.16 458.104 145.08 456.888 142.456C455.672 139.768 455.064 136.696 455.064 133.24V80.824C455.064 79.416 455.512 78.264 456.408 77.368C457.304 76.472 458.456 76.024 459.864 76.024C461.272 76.024 462.424 76.472 463.32 77.368C464.216 78.264 464.664 79.416 464.664 80.824V133.24C464.664 135.608 465.112 137.56 466.008 139.096C466.904 140.632 468.056 141.4 469.464 141.4H471.864C473.144 141.4 474.168 141.848 474.936 142.744C475.768 143.64 476.184 144.792 476.184 146.2C476.184 147.608 475.576 148.76 474.36 149.656C473.144 150.552 471.576 151 469.656 151H469.464Z" fill="white"/>
<defs>
<linearGradient id="paint0_linear_3_2" x1="477.654" y1="51" x2="373" y2="195.044" gradientUnits="userSpaceOnUse">
<stop stop-color="#F197AB"/>
<stop offset="1" stop-color="#F197AB"/>
</linearGradient>
<linearGradient id="paint1_linear_3_2" x1="0" y1="0" x2="0" y2="202" gradientUnits="userSpaceOnUse">
<stop stop-color="#93A0FF"/>
<stop offset="1" stop-color="#93A0FF"/>
</linearGradient>
</defs>
</svg>
